<?xml version="1.0" encoding="utf-8"?>
<!-- Generator: Adobe Illustrator 19.2.1, SVG Export Plug-In . SVG Version: 6.00 Build 0)  -->
<svg version="1.1" id="layer" xmlns="http://www.w3.org/2000/svg" xmlns:xlink="http://www.w3.org/1999/xlink" x="0px" y="0px"
	 viewBox="0 0 652 652" style="enable-background:new 0 0 652 652;" xml:space="preserve">
<style type="text/css">
	.st0{fill:#9DD6E3;}
	.st1{fill:#3F72AB;}
	.st2{fill:#00A9D1;}
	.st3{fill:#2191C4;}
	.st4{fill:#212F38;}
</style>
<polygon id="Fill-2" class="st0" points="56.1,385.3 90.8,385.3 90.8,350.6 56.1,350.6 "/>
<polygon id="Fill-3" class="st0" points="21.4,350.6 56.1,350.6 56.1,315.9 21.4,315.9 "/>
<polygon id="Fill-4" class="st1" points="21.4,385.3 56.1,385.3 56.1,350.6 21.4,350.6 "/>
<polygon id="Fill-5" class="st2" points="90.8,350.6 125.5,350.6 125.5,315.9 90.8,315.9 "/>
<polygon id="Fill-6" class="st2" points="56.1,315.9 90.8,315.9 90.8,281.2 56.1,281.2 "/>
<polygon id="Fill-7" class="st3" points="56.1,350.6 90.8,350.6 90.8,315.9 56.1,315.9 "/>
<polygon id="Fill-8" class="st1" points="90.8,315.9 125.5,315.9 125.5,281.2 90.8,281.2 "/>
<path class="st4" d="M229,348.4c2.5-5.6,7.7-9.4,14.6-9.4c6.9,0,12,3.2,14.1,9.4H229z M274.1,355.5c0-17.1-12.5-30.8-30.7-30.8
	c-17.1,0-30.9,13.8-30.9,30.9c0,17.1,12.8,30.9,31.4,30.9c12.8,0,22.1-6.2,27.3-15.1l-12.9-7.7c-2.7,5.3-8,8.5-14.2,8.5
	c-8.6,0-13.9-4.3-15.8-10.8h45.9V355.5z M605.6,355.5c0-8.8-6.4-15.9-15.2-15.9c-9,0-15.9,6.8-15.9,15.9s6.9,16,15.9,16
	C599.2,371.6,605.6,364.3,605.6,355.5L605.6,355.5z M558.5,355.6c0-21,15.5-30.9,28.9-30.9c7.7,0,13.8,2.9,17.7,7v-33.2h16.3v86.8
	h-16.3v-6.7c-3.9,4.6-10.2,7.8-17.9,7.8C574.6,386.5,558.5,376.5,558.5,355.6L558.5,355.6z M546.6,316.9c5.4,0,9.7-4.4,9.7-9.7
	s-4.4-9.7-9.7-9.7c-5.4,0-9.7,4.4-9.7,9.7S541.2,316.9,546.6,316.9L546.6,316.9z M538.4,325.9h16.3v59.4h-16.3v-43.6l-5.9,0
	L538.4,325.9z M495.1,325.9h16.2v9.7c3-6.2,8.3-9.7,16.4-9.7h6.5l-5.9,15.8h-4.4c-8.7,0-12.5,4.5-12.5,15.6v28h-16.3V325.9z
	 M403.5,342c0-24.7,18.7-44.6,44.3-44.6c12.8,0,23.6,4.6,31.5,12c3.2,3,5.9,6.5,8,10.2l-14.5,8.8c-5.3-9.9-13.5-15-24.8-15
	c-15.8,0-28,13-28,28.5c0,15.9,12,28.5,28.6,28.5c12.6,0,21.5-7.1,24.6-18.2h-27.2v-15.8h45v6.7c0,23.3-16.6,43.4-42.4,43.4
	C421.4,386.5,403.5,366,403.5,342L403.5,342z M383.8,355.5c0-8.8-6.4-15.9-15.2-15.9c-9,0-15.9,6.8-15.9,15.9s6.9,16,15.9,16
	C377.4,371.6,383.8,364.3,383.8,355.5L383.8,355.5z M336.8,355.6c0-21,15.4-30.9,28.9-30.9c7.7,0,13.8,2.9,17.7,7v-33.2h16.3v86.8
	h-16.3v-6.7c-3.9,4.6-10.2,7.8-17.9,7.8C352.8,386.5,336.8,376.5,336.8,355.6L336.8,355.6z M277.9,325.9h16.2v6.7
	c3.8-4.9,9.6-7.8,16.4-7.8c14,0,22.5,9,22.5,24.4v36.2h-16.5v-34.1c0-8-3.7-12.6-10.9-12.6c-6.2,0-11.3,4.3-11.3,14.3v32.4h-16.3
	V325.9z M145,371l15.1-11.9c4.3,7.4,11.1,11.6,18.8,11.6c8.4,0,13-5.5,13-11.4c0-7.1-8.7-9.4-17.9-12.2
	c-11.6-3.6-24.6-8.1-24.6-24.7c0-13.9,12.1-25,28.9-25c14.1,0,22.2,5.3,29.2,12.6l-13.7,10.3c-3.6-5.3-8.7-8.2-15.5-8.2
	c-7.7,0-11.9,4.2-11.9,9.6c0,6.7,8.3,8.9,17.6,12c11.8,3.8,25.1,9,25.1,25.7c0,13.8-10.9,27.1-30.1,27.1
	C163.3,386.5,152.8,379.9,145,371L145,371z M161.4,260.3v20.2h-4.7v-20.2h-7.2v-4h19.1l0,4H161.4 M202.7,280.5h-4.4l-5.4-17.7
	l-5.4,17.7h-4.4l-6.8-24.4l4.9,0.1l4.5,17.2l5.1-17.1h4.7l5.1,17.1l4.4-17.1h4.7L202.7,280.5 M218.9,280.5h4.7v-24.3h-4.7V280.5z
	 M234.4,280.5v-24.3h4.7v20.2h8.1l0,4.1H234.4 M257,280.5h4.7v-24.3H257V280.5z M282.9,259.6c-4.2,0-6.6,3.4-6.6,8.7
	s2.5,8.7,6.6,8.7c4.2,0,6.7-3.4,6.7-8.7S287.1,259.6,282.9,259.6 M282.9,281c-6.9,0-11.4-5.1-11.4-12.6c0-7.5,4.5-12.6,11.4-12.6
	c7,0,11.4,5.1,11.4,12.6C294.3,275.8,289.9,281,282.9,281"/>
</svg>
